<?xml version="1.0" encoding="UTF-8"?>
<svg version="1.1" xmlns="http://www.w3.org/2000/svg" width="1110" height="1110">
<path d="M0 0 C366.3 0 732.6 0 1110 0 C1110 366.3 1110 732.6 1110 1110 C743.7 1110 377.4 1110 0 1110 C0 743.7 0 377.4 0 0 Z " fill="#C81225" transform="translate(0,0)"/>
<path d="M0 0 C0.97227539 -0.00295074 1.94455078 -0.00590149 2.94628906 -0.00894165 C23.27677372 -0.02294854 42.22131217 2.16886393 61.9375 7.3125 C61.9375 7.9725 61.9375 8.6325 61.9375 9.3125 C62.90816406 9.40917969 63.87882812 9.50585938 64.87890625 9.60546875 C69.48022446 10.26610559 73.5815173 11.89673735 77.875 13.625 C79.01485352 14.06875977 79.01485352 14.06875977 80.17773438 14.52148438 C83.83223266 15.96643118 87.3704145 17.49911143 90.85546875 19.31640625 C95.50797507 21.6936371 100.35582749 23.31401016 105.3125 24.9375 C106.63507813 25.38609375 106.63507813 25.38609375 107.984375 25.84375 C127.47110222 32.30122852 147.21031258 32.41814951 165.9765625 23.39453125 C168.81694166 21.8272304 171.53276733 20.09515689 174.2109375 18.265625 C175.9375 17.3125 175.9375 17.3125 178.9375 17.3125 C178.6075 18.9625 178.2775 20.6125 177.9375 22.3125 C177.2775 22.3125 176.6175 22.3125 175.9375 22.3125 C175.70289063 23.08851563 175.46828125 23.86453125 175.2265625 24.6640625 C173.52814752 29.47109157 171.43473307 34.05474765 169.3125 38.6875 C168.64045532 40.16005249 168.64045532 40.16005249 167.95483398 41.66235352 C165.10073828 47.87862777 162.14130905 54.02671012 159.04833984 60.12695312 C152.22577365 73.60245434 145.78098948 87.26123032 139.71484375 101.09277344 C136.68926512 107.95635459 133.34883001 114.63166771 129.9375 121.3125 C128.57791561 123.99729157 127.22558474 126.68567215 125.875 129.375 C125.53887695 130.03975342 125.20275391 130.70450684 124.85644531 131.3894043 C123.23375254 134.62093758 121.67403331 137.86041192 120.23828125 141.1796875 C119.72652344 142.35789062 119.21476562 143.53609375 118.6875 144.75 C118.03007813 146.32587891 118.03007813 146.32587891 117.359375 147.93359375 C115.9375 150.3125 115.9375 150.3125 113.84863281 150.96118164 C112.90262207 151.13508423 112.90262207 151.13508423 111.9375 151.3125 C111.91562622 149.7804895 111.91562622 149.7804895 111.89331055 148.2175293 C111.89669323 121.5620818 111.89669323 121.5620818 107.9375 95.3125 C107.73495605 94.48524414 107.53241211 93.65798828 107.32373047 92.80566406 C104.5958477 82.07268531 101.28473716 72.50178365 94.9375 63.3125 C94.34324219 62.40628906 93.74898437 61.50007813 93.13671875 60.56640625 C82.12852316 44.49854313 65.93015181 30.80670324 46.9375 25.3125 C45.80183594 24.94511719 44.66617187 24.57773437 43.49609375 24.19921875 C20.74061803 17.58158348 -5.58205984 20.06714533 -28.0625 26.3125 C-29.83173828 26.77849609 -29.83173828 26.77849609 -31.63671875 27.25390625 C-40.24355082 29.81642101 -48.13929044 34.15931674 -56.0625 38.3125 C-57.24852181 38.92221768 -58.43471157 39.53160882 -59.62109375 40.140625 C-66.49526162 43.73559618 -72.85126373 47.67051707 -79.0625 52.3125 C-80.06925781 53.05242187 -81.07601563 53.79234375 -82.11328125 54.5546875 C-90.26467362 60.62382346 -97.75118911 67.26199687 -105.0625 74.3125 C-105.62001953 74.84810547 -106.17753906 75.38371094 -106.75195312 75.93554688 C-113.29202114 82.25035422 -119.41784866 88.68522043 -125.07421875 95.8203125 C-126.90352326 98.1132325 -128.79671733 100.31266385 -130.75 102.5 C-134.0863918 106.28022373 -137.09866803 110.23631627 -140.0625 114.3125 C-140.65675781 115.12332031 -141.25101563 115.93414062 -141.86328125 116.76953125 C-146.90101246 123.66486275 -151.88297094 130.60047779 -156.82324219 137.56591797 C-158.0072044 139.23456763 -159.19491774 140.90055384 -160.3828125 142.56640625 C-165.5776286 149.9423211 -170.31002795 157.50287971 -174.86816406 165.27978516 C-176.14065796 167.4455219 -177.42496709 169.60395939 -178.7109375 171.76171875 C-179.59924339 173.25764327 -180.48727008 174.75373361 -181.375 176.25 C-181.78355225 176.93545898 -182.19210449 177.62091797 -182.61303711 178.32714844 C-185.30955662 182.89654347 -187.73439682 187.54441683 -190.0625 192.3125 C-190.7225 192.3125 -191.3825 192.3125 -192.0625 192.3125 C-192.30742187 193.11945313 -192.55234375 193.92640625 -192.8046875 194.7578125 C-194.32381237 199.05099149 -196.21977098 203.08516742 -198.1875 207.1875 C-198.56003906 207.97125 -198.93257812 208.755 -199.31640625 209.5625 C-200.22868997 211.48063499 -201.14516984 213.39677329 -202.0625 215.3125 C-202.7225 215.3125 -203.3825 215.3125 -204.0625 215.3125 C-204.44019531 216.55515625 -204.81789063 217.7978125 -205.20703125 219.078125 C-207.18469003 225.00762973 -209.96627305 230.47807215 -212.75 236.0625 C-218.23628509 247.24794338 -222.87052994 258.58731317 -227.0625 270.3125 C-227.7225 270.3125 -228.3825 270.3125 -229.0625 270.3125 C-229.17875732 271.15329102 -229.29501465 271.99408203 -229.41479492 272.86035156 C-230.11304086 276.58187347 -231.18988021 279.96810931 -232.42578125 283.546875 C-232.6590361 284.22494202 -232.89229095 284.90300903 -233.13261414 285.60162354 C-233.62545646 287.03109518 -234.12059985 288.45977533 -234.61791992 289.88769531 C-235.36732638 292.0404566 -236.10906827 294.19573767 -236.84960938 296.3515625 C-240.7939111 307.77782159 -240.7939111 307.77782159 -243.15234375 313.3203125 C-245.93951111 320.12560444 -247.53673893 327.31810434 -249.3125 334.4375 C-249.67906035 335.88557557 -250.04624353 337.33349362 -250.4140625 338.78125 C-251.30405164 342.28988273 -252.18563231 345.80056192 -253.0625 349.3125 C-253.7225 349.3125 -254.3825 349.3125 -255.0625 349.3125 C-255.16820312 350.47007812 -255.27390625 351.62765625 -255.3828125 352.8203125 C-256.09847432 359.26126887 -257.35262352 365.60667697 -258.53167725 371.97479248 C-265.07811838 407.66860065 -269.29256835 444.52097507 -261.0625 480.3125 C-260.86414551 481.19244629 -260.66579102 482.07239258 -260.46142578 482.97900391 C-256.32932654 500.50344389 -248.12966534 516.88209841 -236.0625 530.3125 C-235.48757813 531.03953125 -234.91265625 531.7665625 -234.3203125 532.515625 C-221.96537912 547.68090803 -204.31650795 555.67669973 -186.0625 561.3125 C-186.0625 561.9725 -186.0625 562.6325 -186.0625 563.3125 C-185.19367188 563.44527344 -184.32484375 563.57804688 -183.4296875 563.71484375 C-182.27726563 563.89144531 -181.12484375 564.06804688 -179.9375 564.25 C-178.80054688 564.42402344 -177.66359375 564.59804688 -176.4921875 564.77734375 C-174.44810599 565.09629497 -172.40722571 565.439529 -170.3762207 565.83325195 C-166.44629885 566.40161831 -162.57515982 566.4935432 -158.61328125 566.515625 C-157.80118698 566.52132507 -156.98909271 566.52702515 -156.15238953 566.53289795 C-154.43192837 566.54231786 -152.71144941 566.54886993 -150.9909668 566.55273438 C-148.42787459 566.56230261 -145.86563402 566.59329505 -143.30273438 566.625 C-132.96146141 566.68930194 -123.16731677 565.81583437 -112.99291992 563.95996094 C-109.89547857 563.44971717 -107.18061394 563.16536436 -104.0625 563.3125 C-104.0625 562.6525 -104.0625 561.9925 -104.0625 561.3125 C-103.48918945 561.15168945 -102.91587891 560.99087891 -102.32519531 560.82519531 C-87.6380592 556.71331554 -87.6380592 556.71331554 -73.14453125 551.9765625 C-71.0625 551.3125 -71.0625 551.3125 -69.0625 551.3125 C-69.0625 550.6525 -69.0625 549.9925 -69.0625 549.3125 C-65.62636118 547.66381374 -62.18836207 546.01904396 -58.75 544.375 C-57.77353516 543.90642578 -56.79707031 543.43785156 -55.79101562 542.95507812 C-54.85322266 542.50712891 -53.91542969 542.05917969 -52.94921875 541.59765625 C-52.08514404 541.18394775 -51.22106934 540.77023926 -50.33081055 540.34399414 C-48.0625 539.3125 -48.0625 539.3125 -45.0625 538.3125 C-45.0625 537.6525 -45.0625 536.9925 -45.0625 536.3125 C-43.23088416 535.09852206 -41.34327316 533.9688865 -39.4375 532.875 C-27.91481997 526.04373103 -17.88444309 517.37267522 -8.0625 508.3125 C-6.35517896 506.79053033 -4.64683991 505.2697019 -2.9375 503.75 C4.17747688 497.33649971 10.71308845 490.58623763 16.9375 483.3125 C17.86659243 482.24687672 18.79633286 481.18181821 19.7265625 480.1171875 C26.14521685 472.74170871 32.18774816 465.22648427 37.9375 457.3125 C38.62585938 456.37535156 39.31421875 455.43820312 40.0234375 454.47265625 C47.55716029 444.18234141 54.73607445 433.6796877 61.78271484 423.05273438 C63.49669981 420.46979889 65.21707989 417.89115267 66.9375 415.3125 C69.80617231 416.69514837 72.49774032 418.23398553 75.1875 419.9375 C75.89390625 420.38351562 76.6003125 420.82953125 77.328125 421.2890625 C77.85921875 421.62679688 78.3903125 421.96453125 78.9375 422.3125 C78.25661019 425.23235181 77.35648766 427.66372304 75.9375 430.3125 C75.2775 430.3125 74.6175 430.3125 73.9375 430.3125 C73.67066406 431.02535156 73.40382813 431.73820312 73.12890625 432.47265625 C69.31277367 441.5688149 63.37995699 449.84922555 58.01171875 458.1015625 C56.33887138 460.69116803 54.71876887 463.29919954 53.125 465.9375 C51.3485988 468.80753596 49.32839428 470.92160572 46.9375 473.3125 C46.06491267 474.61282622 45.21355852 475.92747342 44.375 477.25 C40.15109074 483.74667261 35.01267925 489.47730731 29.9375 495.3125 C29.29425781 496.05757812 28.65101563 496.80265625 27.98828125 497.5703125 C26.31659056 499.49528966 24.63083881 501.40654466 22.9375 503.3125 C22.21820312 504.12460937 21.49890625 504.93671875 20.7578125 505.7734375 C13.8859953 513.47820224 6.80430797 520.62705568 -1.0625 527.3125 C-1.98289062 528.09882812 -2.90328125 528.88515625 -3.8515625 529.6953125 C-19.32868304 542.77287946 -19.32868304 542.77287946 -28.0625 547.625 C-30.95788522 549.07464722 -30.95788522 549.07464722 -32.51953125 550.77661133 C-35.25585792 553.50038207 -38.71143339 555.13067726 -42.0625 557 C-42.78695313 557.41572266 -43.51140625 557.83144531 -44.2578125 558.25976562 C-44.95648437 558.65228516 -45.65515625 559.04480469 -46.375 559.44921875 C-47.32826172 559.98615356 -47.32826172 559.98615356 -48.30078125 560.53393555 C-50.0625 561.3125 -50.0625 561.3125 -53.0625 561.3125 C-53.0625 561.9725 -53.0625 562.6325 -53.0625 563.3125 C-59.12261477 565.95152411 -65.19749861 568.55356277 -71.28515625 571.12841797 C-73.65797609 572.14003684 -76.01718377 573.17679634 -78.375 574.22265625 C-88.03143805 578.37274158 -97.96651311 580.92435731 -108.1875 583.25 C-108.86480164 583.40583557 -109.54210327 583.56167114 -110.2399292 583.722229 C-117.24997259 585.31813748 -123.85735638 586.76167562 -131.0625 586.3125 C-131.0625 586.9725 -131.0625 587.6325 -131.0625 588.3125 C-147.67988834 590.71624635 -164.04304366 591.62202847 -180.8125 591.625 C-181.69911316 591.62822266 -182.58572632 591.63144531 -183.49920654 591.63476562 C-194.8698642 591.66001213 -205.81060549 590.96226679 -217.0625 589.3125 C-218.9290246 589.08181116 -220.79615591 588.85593643 -222.6640625 588.63671875 C-246.84610193 585.6298452 -270.22488834 580.30558342 -292.0625 569.3125 C-293.45855469 568.63960937 -293.45855469 568.63960937 -294.8828125 567.953125 C-312.03338941 559.24984717 -327.51885006 545.54370478 -339.0625 530.3125 C-339.46855469 529.78140625 -339.87460937 529.2503125 -340.29296875 528.703125 C-355.9903665 508.03085965 -363.01708574 486.70090149 -367.52612305 461.26416016 C-367.86335792 459.40837062 -368.23041062 457.55750568 -368.63989258 455.71630859 C-370.663282 445.86538479 -370.32822973 435.87260842 -370.26831055 425.86376953 C-370.24984379 422.6604023 -370.24780275 419.45732162 -370.24804688 416.25390625 C-370.24313828 414.21874748 -370.23731286 412.18359068 -370.23046875 410.1484375 C-370.22935593 409.19021088 -370.2282431 408.23198425 -370.22709656 407.24472046 C-370.22071671 406.36264923 -370.21433685 405.480578 -370.20776367 404.57177734 C-370.20395187 403.79522797 -370.20014008 403.01867859 -370.19621277 402.21859741 C-370.0625 400.3125 -370.0625 400.3125 -369.0625 398.3125 C-368.8184833 396.62635013 -368.6218911 394.93322367 -368.44921875 393.23828125 C-368.28232544 391.66614868 -368.28232544 391.66614868 -368.11206055 390.06225586 C-367.99258057 388.92796143 -367.87310059 387.79366699 -367.75 386.625 C-365.390837 365.44499124 -361.27788949 344.96763722 -356.0625 324.3125 C-355.4025 324.3125 -354.7425 324.3125 -354.0625 324.3125 C-353.94100586 323.29897461 -353.81951172 322.28544922 -353.69433594 321.24121094 C-353.08553893 317.45575443 -352.15973602 314.08721339 -350.953125 310.453125 C-350.6400943 309.50829254 -350.6400943 309.50829254 -350.32073975 308.54437256 C-349.87985953 307.21902739 -349.43598896 305.89467353 -348.98925781 304.57128906 C-348.3198234 302.58423772 -347.66318081 300.59329086 -347.0078125 298.6015625 C-344.73993038 291.78410671 -342.23673243 285.17743831 -339.16552734 278.67236328 C-337.70141099 275.53997092 -336.48074654 272.35617446 -335.25 269.125 C-332.03621737 260.91892341 -328.13249244 253.12213437 -324.0625 245.3125 C-323.70784668 244.62929688 -323.35319336 243.94609375 -322.98779297 243.2421875 C-308.17640662 214.7787406 -308.17640662 214.7787406 -299.66015625 201.79296875 C-297.41632387 198.30926811 -295.36952265 194.71637826 -293.32421875 191.11328125 C-292.90785156 190.51902344 -292.49148438 189.92476562 -292.0625 189.3125 C-291.4025 189.3125 -290.7425 189.3125 -290.0625 189.3125 C-289.8459375 188.6525 -289.629375 187.9925 -289.40625 187.3125 C-287.59899852 183.27770601 -285.13797167 179.89215277 -282.5625 176.3125 C-282.02423584 175.558479 -281.48597168 174.80445801 -280.93139648 174.02758789 C-269.79641608 158.51093107 -257.89768809 143.45972954 -245.0625 129.3125 C-243.89289203 127.98174604 -242.72620823 126.64841618 -241.5625 125.3125 C-230.21534974 112.33322539 -230.21534974 112.33322539 -225.0625 107.3125 C-224.28132813 106.51585937 -224.28132813 106.51585937 -223.484375 105.703125 C-219.87041912 102.0240528 -216.13484132 98.56349464 -212.23046875 95.1953125 C-209.81407049 93.0967468 -207.43720976 90.958103 -205.0625 88.8125 C-157.88821912 46.3125 -157.88821912 46.3125 -147.0625 46.3125 C-147.0625 45.6525 -147.0625 44.9925 -147.0625 44.3125 C-141.87007417 41.4099756 -136.67142565 38.51914752 -131.46484375 35.64208984 C-129.9789154 34.81969494 -128.49427155 33.99496853 -127.01171875 33.16650391 C-119.7727698 29.12550678 -112.47312249 25.49460472 -104.8125 22.3125 C-104.08474365 22.00932861 -103.3569873 21.70615723 -102.60717773 21.39379883 C-99.61301368 20.18570206 -97.32153536 19.3125 -94.0625 19.3125 C-94.0625 18.6525 -94.0625 17.9925 -94.0625 17.3125 C-60.60889175 6.3125 -60.60889175 6.3125 -52.0625 6.3125 C-52.0625 5.6525 -52.0625 4.9925 -52.0625 4.3125 C-49.14669491 3.82754915 -46.23001246 3.34948198 -43.3125 2.875 C-42.50683594 2.74029297 -41.70117188 2.60558594 -40.87109375 2.46679688 C-27.28339739 0.2735073 -13.73311869 0.036663 0 0 Z " fill="#F7F5F0" transform="translate(652.0625,250.6875)"/>
<path d="M0 0 C0.33 0 0.66 0 1 0 C1.33 9.57 1.66 19.14 2 29 C2.33 27.35 2.66 25.7 3 24 C3.99 24.33 4.98 24.66 6 25 C6.33 24.34 6.66 23.68 7 23 C7.82973374 25.38213881 8.10314333 26.65893095 7.36328125 29.10546875 C7.01652344 29.79253906 6.66976562 30.47960937 6.3125 31.1875 C5.81169922 32.22970703 5.81169922 32.22970703 5.30078125 33.29296875 C4 35 4 35 0 36 C0 24.12 0 12.24 0 0 Z " fill="#E5B8B8" transform="translate(764,366)"/>
<path d="M0 0 C6.27 0 12.54 0 19 0 C19.33 1.32 19.66 2.64 20 4 C11.75 4 3.5 4 -5 4 C-5 3.67 -5 3.34 -5 3 C-3.02 3 -1.04 3 1 3 C0.67 2.01 0.34 1.02 0 0 Z " fill="#E7C4C3" transform="translate(657,267)"/>
<path d="M0 0 C0.33 0.99 0.66 1.98 1 3 C0.01 3.33 -0.98 3.66 -2 4 C-3.06716704 5.79932579 -3.06716704 5.79932579 -4 8 C-7.46317512 14.17348609 -7.46317512 14.17348609 -10 16 C-12.09765625 15.5703125 -12.09765625 15.5703125 -14 15 C-12.98679687 14.00419922 -12.98679687 14.00419922 -11.953125 12.98828125 C-11.06109375 12.10527344 -10.1690625 11.22226562 -9.25 10.3125 C-8.36828125 9.44238281 -7.4865625 8.57226562 -6.578125 7.67578125 C-4.21194702 5.21997532 -2.08107444 2.69858952 0 0 Z " fill="#C71F29" transform="translate(676,752)"/>
<path d="M0 0 C-0.4743098 4.2687882 -2.80716564 6.31511656 -6 9 C-8.8125 9.8125 -8.8125 9.8125 -11 10 C-10.06409496 8.8944811 -9.12620142 7.79064547 -8.1875 6.6875 C-7.66542969 6.07261719 -7.14335938 5.45773437 -6.60546875 4.82421875 C-2.35974304 0 -2.35974304 0 0 0 Z " fill="#CA242C" transform="translate(557,316)"/>
<path d="M0 0 C0.66 0 1.32 0 2 0 C0.61811547 3.21043882 -0.92421903 5.04936365 -3.625 7.25 C-4.57246094 8.03117188 -4.57246094 8.03117188 -5.5390625 8.828125 C-6.02117188 9.21484375 -6.50328125 9.6015625 -7 10 C-7.66 9.67 -8.32 9.34 -9 9 C-7.73532205 5.20596616 -6.38302487 4.93315707 -3 3 C-2.1646875 2.1646875 -2.1646875 2.1646875 -1.3125 1.3125 C-0.879375 0.879375 -0.44625 0.44625 0 0 Z " fill="#CA252E" transform="translate(653,748)"/>
<path d="M0 0 C-0.33 1.65 -0.66 3.3 -1 5 C-1.66 5 -2.32 5 -3 5 C-3.66 6.32 -4.32 7.64 -5 9 C-5.66 7.02 -6.32 5.04 -7 3 C-3.375 0 -3.375 0 0 0 Z " fill="#EFCECF" transform="translate(831,268)"/>
<path d="M0 0 C0.640625 1.76953125 0.640625 1.76953125 1 4 C0.109375 5.88671875 0.109375 5.88671875 -1.25 7.6875 C-1.68828125 8.28949219 -2.1265625 8.89148438 -2.578125 9.51171875 C-4 11 -4 11 -7 12 C-5.44298069 7.32894208 -2.91552627 3.91294315 0 0 Z " fill="#CF3B41" transform="translate(489,396)"/>
<path d="M0 0 C0.66 0.33 1.32 0.66 2 1 C1.67 4.3 1.34 7.6 1 11 C0.01 11.33 -0.98 11.66 -2 12 C-1.85962479 10.18706911 -1.71255111 8.3746557 -1.5625 6.5625 C-1.48128906 5.55316406 -1.40007812 4.54382813 -1.31640625 3.50390625 C-1 1 -1 1 0 0 Z " fill="#F6EAE9" transform="translate(289,609)"/>
<path d="M0 0 C0 0.66 0 1.32 0 2 C-3.96 2.99 -7.92 3.98 -12 5 C-12.33 4.34 -12.66 3.68 -13 3 C-4.57142857 -0.42857143 -4.57142857 -0.42857143 0 0 Z " fill="#C9242A" transform="translate(587,258)"/>
<path d="M0 0 C0 4.13781054 -1.71509607 5.20919996 -4.5 8.1875 C-5.3353125 9.08855469 -6.170625 9.98960937 -7.03125 10.91796875 C-7.6809375 11.60503906 -8.330625 12.29210937 -9 13 C-9.66 12.67 -10.32 12.34 -11 12 C-7.37 8.04 -3.74 4.08 0 0 Z " fill="#EFC3C3" transform="translate(415,371)"/>
<path d="M0 0 C2.64 0 5.28 0 8 0 C8 0.33 8 0.66 8 1 C6.35 1 4.7 1 3 1 C3 1.66 3 2.32 3 3 C-3.4 4.23076923 -3.4 4.23076923 -6.4375 3.0625 C-6.953125 2.711875 -7.46875 2.36125 -8 2 C-5.36 2 -2.72 2 0 2 C0 1.34 0 0.68 0 0 Z " fill="#D03C41" transform="translate(521,837)"/>
<path d="M0 0 C0 0.99 0 1.98 0 3 C-3.3 3.33 -6.6 3.66 -10 4 C-4.66666667 0 -4.66666667 0 0 0 Z " fill="#EDD8D7" transform="translate(652,268)"/>
<path d="M0 0 C-1.5 1.5625 -1.5 1.5625 -4 3 C-6.77437543 2.96823234 -9.25286467 2.50364148 -12 2 C-8.09971775 -0.60018816 -4.52565431 -0.15085514 0 0 Z " fill="#CC2A30" transform="translate(547,834)"/>
<path d="M0 0 C0.66 1.32 1.32 2.64 2 4 C0.35 5.32 -1.3 6.64 -3 8 C-3.33 7.34 -3.66 6.68 -4 6 C-3.67 5.34 -3.34 4.68 -3 4 C-2.34 4 -1.68 4 -1 4 C-0.67 2.68 -0.34 1.36 0 0 Z " fill="#CB2A31" transform="translate(729,677)"/>
<path d="M0 0 C5.75 -0.125 5.75 -0.125 8 1 C8 1.66 8 2.32 8 3 C5.69 3 3.38 3 1 3 C0.67 2.01 0.34 1.02 0 0 Z " fill="#CB1F2C" transform="translate(648,271)"/>
<path d="M0 0 C0.33 0.99 0.66 1.98 1 3 C0.01 3.33 -0.98 3.66 -2 4 C-3.20882096 6.00016466 -3.20882096 6.00016466 -4 8 C-4.99 8 -5.98 8 -7 8 C-4.69 5.36 -2.38 2.72 0 0 Z " fill="#CA3034" transform="translate(676,752)"/>
<path d="M0 0 C0.33 0 0.66 0 1 0 C1.125 5.75 1.125 5.75 0 8 C-0.99 8 -1.98 8 -3 8 C-3 6.35 -3 4.7 -3 3 C-2.67 3.66 -2.34 4.32 -2 5 C-1.34 5 -0.68 5 0 5 C0 3.35 0 1.7 0 0 Z " fill="#D03740" transform="translate(285,624)"/>
<path d="M0 0 C2.49361571 1.20381448 4.68143083 2.45428722 7 4 C4.03 3.67 1.06 3.34 -2 3 C-1.34 2.01 -0.68 1.02 0 0 Z " fill="#EBCDCC" transform="translate(679,268)"/>
</svg>
